<?xml version="1.0" encoding="UTF-8" standalone="no"?>
<!-- Created with Inkscape (http://www.inkscape.org/) -->

<svg
   version="1.1"
   id="svg1"
   width="177.10667"
   height="69.706665"
   viewBox="0 0 177.10667 69.706665"
   sodipodi:docname="UCN-hovedlogo.eps"
   xmlns:inkscape="http://www.inkscape.org/namespaces/inkscape"
   xmlns:sodipodi="http://sodipodi.sourceforge.net/DTD/sodipodi-0.dtd"
   xmlns="http://www.w3.org/2000/svg"
   xmlns:svg="http://www.w3.org/2000/svg">
  <defs
     id="defs1" />
  <sodipodi:namedview
     id="namedview1"
     pagecolor="#ffffff"
     bordercolor="#000000"
     borderopacity="0.25"
     inkscape:showpageshadow="2"
     inkscape:pageopacity="0.0"
     inkscape:pagecheckerboard="0"
     inkscape:deskcolor="#d1d1d1">
    <inkscape:page
       x="0"
       y="0"
       inkscape:label="1"
       id="page1"
       width="177.10667"
       height="69.706665"
       margin="0"
       bleed="0" />
  </sodipodi:namedview>
  <g
     id="g1"
     inkscape:groupmode="layer"
     inkscape:label="1">
    <g
       id="group-R5">
      <path
         id="path2"
         d="M 26.3906,42.2695 H 15.2148 V 62.457 h 11.1758 c 6.0352,0 10.0742,-4.2461 10.0742,-10.0898 0,-5.8477 -4.039,-10.0977 -10.0742,-10.0977 z m 0.6719,34.2774 H 0 V 6.22656 H 15.2148 V 28.1797 h 11.8477 c 14.1133,0 24.8164,10.3242 24.8164,24.1875 0,13.8789 -10.7148,24.1797 -24.8164,24.1797"
         style="fill:#022a38;fill-opacity:1;fill-rule:nonzero;stroke:none"
         transform="matrix(0.13333333,0,0,-0.13333333,0,69.706667)" />
      <path
         id="path3"
         d="M 91.875,44.2813 H 79.7031 V 62.4961 H 91.875 c 6.3672,0 10.164,-3.8477 10.164,-9.1133 0,-5.2734 -3.7968,-9.1015 -10.164,-9.1015 z m 25.582,9.0039 c 0,13.5664 -10.504,23.2617 -24.5859,23.2617 H 64.4883 V 6.22656 H 79.7031 V 30.2305 h 9.7617 L 103.203,6.22656 h 16.992 L 104.641,32.8164 c 7.777,3.75 12.816,11.2695 12.816,20.4688"
         style="fill:#022a38;fill-opacity:1;fill-rule:nonzero;stroke:none"
         transform="matrix(0.13333333,0,0,-0.13333333,0,69.706667)" />
      <path
         id="path4"
         d="m 165.676,19.0469 c -12.531,0 -22.11,9.6797 -22.11,22.3437 0,12.6563 9.579,22.336 22.11,22.336 12.527,0 21.941,-9.5821 21.941,-22.336 0,-12.7617 -9.414,-22.3437 -21.941,-22.3437 z m 0,59.0351 c -21.461,0 -37.528,-15.8203 -37.528,-36.6914 0,-20.8789 16.067,-36.69919 37.528,-36.69919 21.375,0 37.355,15.73439 37.355,36.69919 0,20.9571 -15.98,36.6914 -37.355,36.6914"
         style="fill:#022a38;fill-opacity:1;fill-rule:nonzero;stroke:none"
         transform="matrix(0.13333333,0,0,-0.13333333,0,69.706667)" />
      <path
         id="path5"
         d="m 216.977,6.22656 h 15.211 V 33.1602 h 24.175 v 13.7695 h -24.175 v 15.4766 h 26.789 v 14.1406 h -42 V 6.22656"
         style="fill:#022a38;fill-opacity:1;fill-rule:nonzero;stroke:none"
         transform="matrix(0.13333333,0,0,-0.13333333,0,69.706667)" />
      <path
         id="path6"
         d="m 287.941,34.8281 h 24.395 v 13.7696 h -24.395 v 13.8984 h 27 V 76.5469 H 272.727 V 6.22656 h 43.324 V 20.3867 h -28.11 v 14.4414"
         style="fill:#022a38;fill-opacity:1;fill-rule:nonzero;stroke:none"
         transform="matrix(0.13333333,0,0,-0.13333333,0,69.706667)" />
      <path
         id="path7"
         d="m 356.695,49.1953 c -7.441,1.7774 -13.554,3.2813 -13.554,8.2305 0,4.6015 5,6.6914 9.925,6.6914 5.696,0 10.688,-2.8438 10.688,-8.8984 h 15.031 c 0,14.0156 -9.183,22.6484 -25.351,22.6484 -15.571,0 -25.508,-7.6094 -25.508,-21.0938 0,-15.1445 12.879,-18.2226 23.48,-20.8398 7.629,-1.7773 14.039,-3.2734 14.039,-8.7305 0,-5.2422 -5.601,-8.2617 -11.328,-8.2617 -6.215,0 -11.836,3.2813 -11.836,10.0664 h -15.332 c 0,-15.1055 11.121,-24.17967 27.27,-24.17967 14.554,0 26.656,7.37497 26.656,22.55857 0,15.7539 -13.457,19.0938 -24.18,21.8086"
         style="fill:#022a38;fill-opacity:1;fill-rule:nonzero;stroke:none"
         transform="matrix(0.13333333,0,0,-0.13333333,0,69.706667)" />
      <path
         id="path8"
         d="m 420.883,49.1953 c -7.445,1.7774 -13.555,3.2813 -13.555,8.2305 0,4.6015 4.996,6.6914 9.93,6.6914 5.687,0 10.683,-2.8438 10.683,-8.8984 h 15.032 c 0,14.0156 -9.188,22.6484 -25.352,22.6484 -15.57,0 -25.508,-7.6094 -25.508,-21.0938 0,-15.1445 12.879,-18.2226 23.485,-20.8398 7.621,-1.7773 14.031,-3.2734 14.031,-8.7305 0,-5.2422 -5.594,-8.2617 -11.324,-8.2617 -6.219,0 -11.836,3.2813 -11.836,10.0664 h -15.332 c 0,-15.1055 11.125,-24.17967 27.273,-24.17967 14.555,0 26.653,7.37497 26.653,22.55857 0,15.7539 -13.461,19.0938 -24.18,21.8086"
         style="fill:#022a38;fill-opacity:1;fill-rule:nonzero;stroke:none"
         transform="matrix(0.13333333,0,0,-0.13333333,0,69.706667)" />
      <path
         id="path9"
         d="m 459.262,6.22656 h 15.215 V 76.5469 H 459.262 V 6.22656"
         style="fill:#022a38;fill-opacity:1;fill-rule:nonzero;stroke:none"
         transform="matrix(0.13333333,0,0,-0.13333333,0,69.706667)" />
      <path
         id="path10"
         d="m 525.992,19.0469 c -12.535,0 -22.109,9.6797 -22.109,22.3437 0,12.6563 9.574,22.336 22.109,22.336 12.528,0 21.942,-9.5821 21.942,-22.336 0,-12.7617 -9.414,-22.3437 -21.942,-22.3437 z m 0,59.0351 c -21.465,0 -37.531,-15.8203 -37.531,-36.6914 0,-20.8789 16.066,-36.69919 37.531,-36.69919 21.375,0 37.36,15.73439 37.36,36.69919 0,20.9571 -15.985,36.6914 -37.36,36.6914"
         style="fill:#022a38;fill-opacity:1;fill-rule:nonzero;stroke:none"
         transform="matrix(0.13333333,0,0,-0.13333333,0,69.706667)" />
      <path
         id="path11"
         d="M 621.855,33.6563 591.027,76.5469 H 577.289 V 6.22656 h 14.934 V 50.1719 L 624.066,6.22656 h 12.719 V 76.5469 h -14.93 V 33.6563"
         style="fill:#022a38;fill-opacity:1;fill-rule:nonzero;stroke:none"
         transform="matrix(0.13333333,0,0,-0.13333333,0,69.706667)" />
      <path
         id="path12"
         d="m 680.648,49.1953 c -7.441,1.7774 -13.554,3.2813 -13.554,8.2305 0,4.6015 4.996,6.6914 9.933,6.6914 5.684,0 10.684,-2.8438 10.684,-8.8984 h 15.027 c 0,14.0156 -9.187,22.6484 -25.351,22.6484 -15.571,0 -25.508,-7.6094 -25.508,-21.0938 0,-15.1445 12.879,-18.2226 23.476,-20.8398 7.629,-1.7773 14.043,-3.2734 14.043,-8.7305 0,-5.2422 -5.593,-8.2617 -11.328,-8.2617 -6.215,0 -11.836,3.2813 -11.836,10.0664 h -15.332 c 0,-15.1055 11.125,-24.17967 27.266,-24.17967 14.562,0 26.66,7.37497 26.66,22.55857 0,15.7539 -13.457,19.0938 -24.18,21.8086"
         style="fill:#022a38;fill-opacity:1;fill-rule:nonzero;stroke:none"
         transform="matrix(0.13333333,0,0,-0.13333333,0,69.706667)" />
      <path
         id="path13"
         d="m 760.707,49.4609 h -26.465 v 27.086 H 719.027 V 6.22656 h 15.215 V 35.3086 h 26.465 V 6.22656 h 15.215 V 76.5469 h -15.215 v -27.086"
         style="fill:#022a38;fill-opacity:1;fill-rule:nonzero;stroke:none"
         transform="matrix(0.13333333,0,0,-0.13333333,0,69.706667)" />
      <path
         id="path14"
         d="m 828.375,19.0195 c -2.082,0 -3.957,0.2813 -5.695,0.7735 l 21.679,36.5117 c 3.77,-3.8672 6.125,-9.25 6.125,-15.4297 0,-12.5586 -9.511,-21.8555 -22.109,-21.8555 z m -16.68,7.3438 c -3.859,3.8555 -6.211,9.2578 -6.211,15.3515 0,12.461 9.434,21.9727 21.942,21.9727 2.09,0 4.101,-0.2539 6.015,-0.7617 z m 40.946,42.7422 8.339,13.6718 h -16.347 l -4.082,-6.9609 c -4.051,1.4375 -8.465,2.2266 -13.125,2.2266 -21.426,0 -37.528,-15.6563 -37.528,-36.4258 0,-11.5625 5.106,-21.5313 13.399,-28.0078 l -8.574,-13.61330625 h 16.511 l 4.18,6.92187625 c 4.102,-1.40625 8.586,-2.16406 13.32,-2.16406 21.426,0 37.344,15.36719 37.344,36.04299 0,11.7383 -5.125,21.8164 -13.437,28.3086"
         style="fill:#022a38;fill-opacity:1;fill-rule:nonzero;stroke:none"
         transform="matrix(0.13333333,0,0,-0.13333333,0,69.706667)" />
      <path
         id="path15"
         d="m 910.805,31.0195 c 0,-7.332 -4.266,-11.9726 -10.489,-11.9726 -6.601,0 -10.878,4.7265 -10.878,11.9726 v 1.7696 H 874.41 v -2.5782 c 0,-14.9218 10.77,-25.51949 25.906,-25.51949 15.293,0 25.528,10.59769 25.528,25.51949 v 46.336 H 910.805 V 31.0195"
         style="fill:#022a38;fill-opacity:1;fill-rule:nonzero;stroke:none"
         transform="matrix(0.13333333,0,0,-0.13333333,0,69.706667)" />
      <path
         id="path16"
         d="m 969.145,49.1953 c -7.442,1.7774 -13.555,3.2813 -13.555,8.2305 0,4.6015 5,6.6914 9.922,6.6914 5.695,0 10.695,-2.8438 10.695,-8.8984 h 15.027 c 0,14.0156 -9.187,22.6484 -25.351,22.6484 -15.574,0 -25.508,-7.6094 -25.508,-21.0938 0,-15.1445 12.883,-18.2226 23.477,-20.8398 7.628,-1.7773 14.043,-3.2734 14.043,-8.7305 0,-5.2422 -5.606,-8.2617 -11.329,-8.2617 -6.218,0 -11.836,3.2813 -11.836,10.0664 h -15.332 c 0,-15.1055 11.125,-24.17967 27.266,-24.17967 14.563,0 26.66,7.37497 26.66,22.55857 0,15.7539 -13.457,19.0938 -24.179,21.8086"
         style="fill:#022a38;fill-opacity:1;fill-rule:nonzero;stroke:none"
         transform="matrix(0.13333333,0,0,-0.13333333,0,69.706667)" />
      <path
         id="path17"
         d="m 1063.52,76.5469 h -17.73 l -23.05,-32.4805 v 32.4805 h -15.22 V 6.22656 h 15.22 V 40.543 l 24.82,-34.31644 h 18.58 l -26.54,36.62894 23.92,33.6914"
         style="fill:#022a38;fill-opacity:1;fill-rule:nonzero;stroke:none"
         transform="matrix(0.13333333,0,0,-0.13333333,0,69.706667)" />
      <path
         id="path18"
         d="m 1104.89,19.0469 c -12.53,0 -22.11,9.6797 -22.11,22.3437 0,12.6563 9.58,22.336 22.11,22.336 12.53,0 21.94,-9.5821 21.94,-22.336 0,-12.7617 -9.41,-22.3437 -21.94,-22.3437 z m 0,59.0351 c -21.47,0 -37.53,-15.8203 -37.53,-36.6914 0,-20.8789 16.06,-36.69919 37.53,-36.69919 21.38,0 37.36,15.73439 37.36,36.69919 0,20.9571 -15.98,36.6914 -37.36,36.6914"
         style="fill:#022a38;fill-opacity:1;fill-rule:nonzero;stroke:none"
         transform="matrix(0.13333333,0,0,-0.13333333,0,69.706667)" />
      <path
         id="path19"
         d="m 1171.4,76.5469 h -15.21 V 6.22656 h 42.2 V 20.3477 h -26.99 v 56.1992"
         style="fill:#022a38;fill-opacity:1;fill-rule:nonzero;stroke:none"
         transform="matrix(0.13333333,0,0,-0.13333333,0,69.706667)" />
      <path
         id="path20"
         d="m 1225.85,34.8281 h 24.39 v 13.7696 h -24.39 v 13.8984 h 27.01 v 14.0508 h -42.23 V 6.22656 h 43.33 V 20.3867 h -28.11 v 14.4414"
         style="fill:#022a38;fill-opacity:1;fill-rule:nonzero;stroke:none"
         transform="matrix(0.13333333,0,0,-0.13333333,0,69.706667)" />
      <path
         id="path21"
         d="M 1313.36,76.5469 V 33.6563 l -30.83,42.8906 h -13.74 V 6.22656 h 14.94 V 50.1719 l 31.84,-43.94534 h 12.73 V 76.5469 h -14.94"
         style="fill:#022a38;fill-opacity:1;fill-rule:nonzero;stroke:none"
         transform="matrix(0.13333333,0,0,-0.13333333,0,69.706667)" />
      <path
         id="path22"
         d="M 546.734,334.98 V 470.004 H 499.77 V 334.98 c 0,-12.968 -10.512,-23.48 -23.481,-23.48 -12.969,0 -23.48,10.512 -23.48,23.48 V 470.004 H 405.84 V 334.98 c 0,-38.906 31.543,-70.449 70.449,-70.449 38.906,0 70.445,31.543 70.445,70.449"
         style="fill:#022a38;fill-opacity:1;fill-rule:nonzero;stroke:none"
         transform="matrix(0.13333333,0,0,-0.13333333,0,69.706667)" />
      <path
         id="path23"
         d="m 734.594,346.719 h -46.961 v -58.707 c 0,-12.969 -10.52,-23.481 -23.488,-23.481 -12.969,0 -23.481,10.512 -23.481,23.481 v 164.383 c 0,12.968 10.512,23.48 23.481,23.48 12.968,0 23.488,-10.512 23.488,-23.48 v -58.707 h 46.961 v 58.707 c 0,38.906 -31.543,70.441 -70.449,70.441 -38.907,0 -70.442,-31.535 -70.442,-70.441 V 288.012 c 0,-38.907 31.535,-70.449 70.442,-70.449 38.906,0 70.449,31.542 70.449,70.449 v 58.707"
         style="fill:#022a38;fill-opacity:1;fill-rule:nonzero;stroke:none"
         transform="matrix(0.13333333,0,0,-0.13333333,0,69.706667)" />
      <path
         id="path24"
         d="m 875.484,270.406 h 46.961 v 135.02 c 0,38.906 -31.531,70.449 -70.437,70.449 -38.906,0 -70.449,-31.543 -70.449,-70.449 v -135.02 h 46.961 v 135.02 c 0,12.969 10.519,23.48 23.488,23.48 12.969,0 23.476,-10.511 23.476,-23.48 v -135.02"
         style="fill:#022a38;fill-opacity:1;fill-rule:nonzero;stroke:none"
         transform="matrix(0.13333333,0,0,-0.13333333,0,69.706667)" />
    </g>
  </g>
</svg>
