<?xml version="1.0" encoding="UTF-8" standalone="no"?>
<!-- Created with Inkscape (http://www.inkscape.org/) -->

<svg
   version="1.1"
   id="svg1"
   width="132.28"
   height="78.173332"
   viewBox="0 0 132.28 78.173332"
   sodipodi:docname="UCN-hovedlogo-simple.eps"
   xmlns:inkscape="http://www.inkscape.org/namespaces/inkscape"
   xmlns:sodipodi="http://sodipodi.sourceforge.net/DTD/sodipodi-0.dtd"
   xmlns="http://www.w3.org/2000/svg"
   xmlns:svg="http://www.w3.org/2000/svg">
  <defs
     id="defs1" />
  <sodipodi:namedview
     id="namedview1"
     pagecolor="#ffffff"
     bordercolor="#000000"
     borderopacity="0.25"
     inkscape:showpageshadow="2"
     inkscape:pageopacity="0.0"
     inkscape:pagecheckerboard="0"
     inkscape:deskcolor="#d1d1d1">
    <inkscape:page
       x="0"
       y="0"
       inkscape:label="1"
       id="page1"
       width="132.28"
       height="78.173332"
       margin="0"
       bleed="0" />
  </sodipodi:namedview>
  <g
     id="g1"
     inkscape:groupmode="layer"
     inkscape:label="1">
    <g
       id="group-R5">
      <path
         id="path2"
         d="m 180.387,225.484 c 0,-24.902 -20.188,-45.097 -45.098,-45.097 -24.906,0 -45.0976,20.195 -45.0976,45.097 V 484.793 H -0.00390625 V 225.484 C -0.00390625,150.77 60.5703,90.1914 135.289,90.1914 c 74.719,0 135.289,60.5786 135.289,135.2926 V 484.793 H 180.387 V 225.484"
         style="fill:#022a38;fill-opacity:1;fill-rule:nonzero;stroke:none"
         transform="matrix(0.13333333,0,0,-0.13333333,0,78.173333)" />
      <path
         id="path3"
         d="m 496.063,586.258 c -74.719,0 -135.29,-60.574 -135.29,-135.289 v -315.68 c 0,-74.7148 60.571,-135.29290625 135.29,-135.29290625 74.714,0 135.292,60.57810625 135.292,135.29290625 V 248.035 H 541.16 V 135.289 c 0,-24.902 -20.195,-45.0976 -45.097,-45.0976 -24.907,0 -45.098,20.1956 -45.098,45.0976 v 315.68 c 0,24.906 20.191,45.097 45.098,45.097 24.902,0 45.097,-20.191 45.097,-45.097 V 338.223 h 90.195 v 112.746 c 0,74.715 -60.578,135.289 -135.292,135.289"
         style="fill:#022a38;fill-opacity:1;fill-rule:nonzero;stroke:none"
         transform="matrix(0.13333333,0,0,-0.13333333,0,78.173333)" />
      <path
         id="path4"
         d="m 856.832,496.066 c -74.715,0 -135.281,-60.57 -135.281,-135.293 v -259.3 h 90.183 v 259.3 c 0,24.907 20.196,45.098 45.098,45.098 24.914,0 45.098,-20.191 45.098,-45.098 v -259.3 h 90.195 v 259.3 c 0,74.723 -60.574,135.293 -135.293,135.293"
         style="fill:#022a38;fill-opacity:1;fill-rule:nonzero;stroke:none"
         transform="matrix(0.13333333,0,0,-0.13333333,0,78.173333)" />
    </g>
  </g>
</svg>
